<svg xmlns="http://www.w3.org/2000/svg" viewBox="0 0 24 24">
  <defs>
    <clipPath id="t"><rect x="1" y="1" width="22" height="22" rx="6"/></clipPath>
    <radialGradient id="neb" cx="0.32" cy="0.28" r="0.95">
      <stop offset="0" stop-color="#8b3df0"/>
      <stop offset="0.45" stop-color="#4c1d95"/>
      <stop offset="1" stop-color="#140826"/>
    </radialGradient>
    <radialGradient id="mag" cx="0.82" cy="0.86" r="0.55">
      <stop offset="0" stop-color="#e0339a" stop-opacity="0.55"/>
      <stop offset="1" stop-color="#e0339a" stop-opacity="0"/>
    </radialGradient>
    <linearGradient id="rift" x1="0" y1="0" x2="1" y2="1">
      <stop offset="0" stop-color="#7df9ff"/>
      <stop offset="0.5" stop-color="#ffffff"/>
      <stop offset="1" stop-color="#ff8df5"/>
    </linearGradient>
    <filter id="soft" x="-60%" y="-60%" width="220%" height="220%"><feGaussianBlur stdDeviation="0.7"/></filter>
  </defs>
  <g clip-path="url(#t)">
    <rect x="1" y="1" width="22" height="22" fill="url(#rift)"/>
    <path d="M -2 -2 L 26 -2 L 26 26 L 23.64 22.36 L 13.64 17.36 L 15.64 14.36 L 7.64 11.36 L 9.64 8.36 L 1.64 3.36 L -2 3.36 Z" fill="url(#neb)"/>
    <path d="M -2 4.64 L 0.36 4.64 L 8.36 9.64 L 6.36 12.64 L 14.36 15.64 L 12.36 18.64 L 22.36 23.64 L 26 26 L -2 26 Z" fill="url(#neb)"/>
    <path d="M -2 -2 L 26 -2 L 26 26 L 23.64 22.36 L 13.64 17.36 L 15.64 14.36 L 7.64 11.36 L 9.64 8.36 L 1.64 3.36 L -2 3.36 Z" fill="url(#mag)"/>
    <path d="M -2 4.64 L 0.36 4.64 L 8.36 9.64 L 6.36 12.64 L 14.36 15.64 L 12.36 18.64 L 22.36 23.64 L 26 26 L -2 26 Z" fill="url(#mag)"/>
    <path d="M 1 4 L 9 9 L 7 12 L 15 15 L 13 18 L 23 23" fill="none" stroke="url(#rift)" stroke-width="1.0" filter="url(#soft)" opacity="0.9"/>
    <g fill="#ffffff">
      <circle cx="5" cy="6" r="0.35" opacity="0.9"/>
      <circle cx="18.5" cy="5" r="0.5" opacity="0.95"/>
      <circle cx="20" cy="11" r="0.3" opacity="0.8"/>
      <circle cx="4" cy="16" r="0.4" opacity="0.85"/>
      <circle cx="17.5" cy="19.5" r="0.3" opacity="0.7"/>
      <circle cx="11" cy="3.6" r="0.25" opacity="0.6"/>
    </g>
  </g>
</svg>
